<svg width="128" height="128" viewBox="0 0 128 128" fill="none" xmlns="http://www.w3.org/2000/svg">
  <circle cx="64" cy="64" r="60" fill="#F9FAFB" />
  <path d="M64 32C53.5066 32 45 40.5066 45 51C45 61.4934 53.5066 70 64 70C74.4934 70 83 61.4934 83 51C83 40.5066 74.4934 32 64 32ZM64 38C71.1797 38 77 43.8203 77 51C77 58.1797 71.1797 64 64 64C56.8203 64 51 58.1797 51 51C51 43.8203 56.8203 38 64 38Z" fill="#111827"/>
  <path d="M38 96C38 82.7452 48.7452 72 62 72H66C79.2548 72 90 82.7452 90 96V96H38V96Z" fill="#111827"/>
  <rect x="38" y="88" width="52" height="8" fill="#111827"/>
</svg> 